<svg id="listenable-data" xmlns="http://www.w3.org/2000/svg" viewBox="0 0 1920 960"><title>header</title><g id="Contornos"><path d="M322.3,848.85H310.5v-34h11.9a15.86,15.86,0,0,1,11.52,4.54q4.65,4.53,4.66,12.55t-4.71,12.46A16.13,16.13,0,0,1,322.3,848.85Zm-7.1-4.17h7a11.21,11.21,0,0,0,8.28-3.31q3.29-3.32,3.29-9.46t-3.24-9.55a11,11,0,0,0-8.23-3.36H315.2Z" style="fill:#2b2b2b"/><path d="M341.93,842.66a6.23,6.23,0,0,1,1.92-4.77,9,9,0,0,1,5.09-2.24l6.24-.91c1.19-.16,1.78-.73,1.78-1.73a3.87,3.87,0,0,0-1.25-3,5.33,5.33,0,0,0-3.74-1.15,5.07,5.07,0,0,0-3.65,1.27,5.29,5.29,0,0,0-1.59,3.38l-4.32-1a7.62,7.62,0,0,1,3-5.41,10.18,10.18,0,0,1,6.43-2.08q4.89,0,7.25,2.37a8.27,8.27,0,0,1,2.35,6.07v11.57a23.26,23.26,0,0,0,.29,3.79h-4.42a18.92,18.92,0,0,1-.24-3.12,8.46,8.46,0,0,1-2.81,2.69,8.57,8.57,0,0,1-4.63,1.15,7.84,7.84,0,0,1-5.57-2A6.5,6.5,0,0,1,341.93,842.66Zm8.36,3.12a7,7,0,0,0,4.84-1.63Q357,842.51,357,839v-1.06L349.9,839a4.39,4.39,0,0,0-2.44,1.1,3.09,3.09,0,0,0-.92,2.35,3.2,3.2,0,0,0,1,2.35A3.71,3.71,0,0,0,350.29,845.78Z" style="fill:#2b2b2b"/><path d="M373.33,818.47v7.3h5v4.08h-5v12a2.72,2.72,0,0,0,3.21,3.16,7.3,7.3,0,0,0,1.78-.19v3.84a8.9,8.9,0,0,1-3.07.43,6.36,6.36,0,0,1-4.71-1.72,6.58,6.58,0,0,1-1.73-4.85V829.85H364.4v-4.08h1.25a3.39,3.39,0,0,0,2.66-1,3.68,3.68,0,0,0,.89-2.57v-3.74Z" style="fill:#2b2b2b"/><path d="M381.68,842.66a6.23,6.23,0,0,1,1.92-4.77,9,9,0,0,1,5.09-2.24l6.24-.91c1.18-.16,1.77-.73,1.77-1.73a3.84,3.84,0,0,0-1.25-3,5.33,5.33,0,0,0-3.74-1.15,5.09,5.09,0,0,0-3.65,1.27,5.33,5.33,0,0,0-1.58,3.38l-4.32-1a7.58,7.58,0,0,1,3-5.41,10.18,10.18,0,0,1,6.43-2.08c3.27,0,5.68.79,7.25,2.37a8.27,8.27,0,0,1,2.35,6.07v11.57a23.26,23.26,0,0,0,.29,3.79h-4.41a18.92,18.92,0,0,1-.24-3.12,8.42,8.42,0,0,1-7.44,3.84,7.81,7.81,0,0,1-5.57-2A6.5,6.5,0,0,1,381.68,842.66Zm8.35,3.12a7,7,0,0,0,4.85-1.63q1.81-1.64,1.82-5.18v-1.06L389.65,839a4.42,4.42,0,0,0-2.45,1.1,3.08,3.08,0,0,0-.91,2.35,3.16,3.16,0,0,0,1,2.35A3.68,3.68,0,0,0,390,845.78Z" style="fill:#2b2b2b"/><path d="M415.66,842.85l4.08-1.44a4.85,4.85,0,0,0,1.63,3.1,5.46,5.46,0,0,0,3.75,1.22,4.37,4.37,0,0,0,2.88-.88,2.77,2.77,0,0,0,1.05-2.19c0-1.53-1-2.53-3-3l-3.94-.87a7.55,7.55,0,0,1-4.22-2.3,6.05,6.05,0,0,1-1.54-4.18,6.65,6.65,0,0,1,2.43-5.13,8.38,8.38,0,0,1,5.78-2.16,11.27,11.27,0,0,1,3.94.64,6.89,6.89,0,0,1,2.68,1.71,9.65,9.65,0,0,1,1.44,2,8.21,8.21,0,0,1,.72,1.87l-4,1.49a4.59,4.59,0,0,0-.34-1.13,5.76,5.76,0,0,0-.74-1.22,3.55,3.55,0,0,0-1.46-1.09,5.81,5.81,0,0,0-2.26-.4,4.12,4.12,0,0,0-2.76.91,2.75,2.75,0,0,0-1.08,2.16c0,1.47.88,2.4,2.64,2.78l3.74.82a8.76,8.76,0,0,1,4.73,2.47,6.22,6.22,0,0,1,1.66,4.39,6.85,6.85,0,0,1-2.23,5,8.47,8.47,0,0,1-6.22,2.2,9.7,9.7,0,0,1-6.67-2.13A7.55,7.55,0,0,1,415.66,842.85Z" style="fill:#2b2b2b"/><path d="M444.37,818.47v7.3h5v4.08h-5v12a2.72,2.72,0,0,0,3.21,3.16,7.3,7.3,0,0,0,1.78-.19v3.84a8.94,8.94,0,0,1-3.07.43,6.36,6.36,0,0,1-4.71-1.72,6.58,6.58,0,0,1-1.73-4.85V829.85h-4.41v-4.08h1.25a3.39,3.39,0,0,0,2.66-1,3.68,3.68,0,0,0,.89-2.57v-3.74Z" style="fill:#2b2b2b"/><path d="M466.49,825.53v4.8a13.24,13.24,0,0,0-2-.15q-6.34,0-6.34,7.11v11.56h-4.51V825.77h4.41v4a7.59,7.59,0,0,1,8.4-4.27Z" style="fill:#2b2b2b"/><path d="M485.55,846.07a6,6,0,0,1-2.79,2.62,9.28,9.28,0,0,1-4,.88,8,8,0,0,1-6.28-2.61,9.58,9.58,0,0,1-2.36-6.65V825.77h4.51v13.87a6.86,6.86,0,0,0,1.28,4.27,4.63,4.63,0,0,0,4,1.68,5.12,5.12,0,0,0,4.08-1.61,6.36,6.36,0,0,0,1.39-4.29V825.77h4.51v18.81a36,36,0,0,0,.24,4.27h-4.32A15.94,15.94,0,0,1,485.55,846.07Z" style="fill:#2b2b2b"/><path d="M505.76,829.22a6.67,6.67,0,0,0-5,2.11,8.24,8.24,0,0,0-2,6,8.33,8.33,0,0,0,2,6,6.62,6.62,0,0,0,5,2.16,6.15,6.15,0,0,0,4.4-1.44,7.32,7.32,0,0,0,2-3.31l4,1.73a11,11,0,0,1-3.62,5,10.45,10.45,0,0,1-6.8,2.16,11,11,0,0,1-8.35-3.5,12.32,12.32,0,0,1-3.31-8.78,12.19,12.19,0,0,1,3.31-8.81,11.06,11.06,0,0,1,8.31-3.43,10.42,10.42,0,0,1,6.84,2.16,10.09,10.09,0,0,1,3.43,5.18L512,834.12a7.28,7.28,0,0,0-2-3.46A5.74,5.74,0,0,0,505.76,829.22Z" style="fill:#2b2b2b"/><path d="M526.35,818.47v7.3h5v4.08h-5v12a3.4,3.4,0,0,0,.74,2.4,3.35,3.35,0,0,0,2.47.76,7.25,7.25,0,0,0,1.78-.19v3.84a8.9,8.9,0,0,1-3.07.43,6.39,6.39,0,0,1-4.71-1.72,6.58,6.58,0,0,1-1.72-4.85V829.85h-4.42v-4.08h1.25a3.39,3.39,0,0,0,2.66-1,3.68,3.68,0,0,0,.89-2.57v-3.74Z" style="fill:#2b2b2b"/><path d="M551.36,846.07a6,6,0,0,1-2.79,2.62,9.31,9.31,0,0,1-4,.88,8.06,8.06,0,0,1-6.29-2.61,9.57,9.57,0,0,1-2.35-6.65V825.77h4.51v13.87a6.92,6.92,0,0,0,1.27,4.27,4.65,4.65,0,0,0,4,1.68,5.09,5.09,0,0,0,4.08-1.61,6.31,6.31,0,0,0,1.4-4.29V825.77h4.51v18.81a36,36,0,0,0,.24,4.27h-4.32A15.94,15.94,0,0,1,551.36,846.07Z" style="fill:#2b2b2b"/><path d="M574.92,825.53v4.8a13.24,13.24,0,0,0-2-.15q-6.35,0-6.34,7.11v11.56h-4.51V825.77h4.41v4a7.59,7.59,0,0,1,8.4-4.27Z" style="fill:#2b2b2b"/><path d="M594.51,840.93l3.89,1.35a10.31,10.31,0,0,1-3.75,5.26,10.81,10.81,0,0,1-6.62,2,11.29,11.29,0,0,1-8.23-3.33,12.07,12.07,0,0,1-3.39-9,12.22,12.22,0,0,1,3.27-8.74,11.1,11.1,0,0,1,15.93-.17,12.79,12.79,0,0,1,2.93,8.81,8.23,8.23,0,0,1-.1,1.44H581.07a6.92,6.92,0,0,0,2,5,6.7,6.7,0,0,0,4.92,2A6.24,6.24,0,0,0,594.51,840.93Zm-13.3-6h12.63a5.83,5.83,0,0,0-6.34-5.9,6,6,0,0,0-4.42,1.75A6.3,6.3,0,0,0,581.21,834.93Z" style="fill:#2b2b2b"/><path d="M620,818.47v7.3h5v4.08h-5v12a3.4,3.4,0,0,0,.74,2.4,3.35,3.35,0,0,0,2.47.76,7.25,7.25,0,0,0,1.78-.19v3.84a8.9,8.9,0,0,1-3.07.43,6.38,6.38,0,0,1-4.71-1.72,6.58,6.58,0,0,1-1.72-4.85V829.85H611v-4.08h1.25a3.39,3.39,0,0,0,2.66-1,3.68,3.68,0,0,0,.89-2.57v-3.74Z" style="fill:#2b2b2b"/><path d="M630.92,828.53a12,12,0,0,1,16.94,0,13.24,13.24,0,0,1,0,17.56,12.11,12.11,0,0,1-17,0,13.25,13.25,0,0,1,0-17.56Zm3.36,14.83a7.08,7.08,0,0,0,10.22,0,9.8,9.8,0,0,0,0-12.1,7.08,7.08,0,0,0-10.22,0,9.8,9.8,0,0,0,0,12.1Z" style="fill:#2b2b2b"/><path d="M671.07,848.85h-4.51V814.1h4.51Z" style="fill:#2b2b2b"/><path d="M677.48,819.31a3.07,3.07,0,0,1-.94-2.28,3.15,3.15,0,0,1,.94-2.3,3.05,3.05,0,0,1,2.28-1,3.19,3.19,0,0,1,2.3.93,3.13,3.13,0,0,1,1,2.33,3.05,3.05,0,0,1-1,2.28,3.2,3.2,0,0,1-2.3.94A3.11,3.11,0,0,1,677.48,819.31ZM682,848.85h-4.46V825.77H682Z" style="fill:#2b2b2b"/><path d="M686.33,842.85l4.08-1.44a4.85,4.85,0,0,0,1.63,3.1,5.46,5.46,0,0,0,3.75,1.22,4.37,4.37,0,0,0,2.88-.88,2.77,2.77,0,0,0,1.05-2.19c0-1.53-1-2.53-3-3l-3.94-.87a7.55,7.55,0,0,1-4.22-2.3,6.05,6.05,0,0,1-1.54-4.18,6.65,6.65,0,0,1,2.43-5.13,8.38,8.38,0,0,1,5.78-2.16,11.27,11.27,0,0,1,3.94.64,6.89,6.89,0,0,1,2.68,1.71,9.65,9.65,0,0,1,1.44,2,8.21,8.21,0,0,1,.72,1.87l-4,1.49a5.07,5.07,0,0,0-.34-1.13,5.76,5.76,0,0,0-.74-1.22,3.55,3.55,0,0,0-1.46-1.09,5.81,5.81,0,0,0-2.26-.4,4.12,4.12,0,0,0-2.76.91,2.75,2.75,0,0,0-1.08,2.16c0,1.47.88,2.4,2.64,2.78l3.74.82a8.76,8.76,0,0,1,4.73,2.47,6.26,6.26,0,0,1,1.66,4.39,6.85,6.85,0,0,1-2.23,5,8.48,8.48,0,0,1-6.22,2.2,9.7,9.7,0,0,1-6.67-2.13A7.55,7.55,0,0,1,686.33,842.85Z" style="fill:#2b2b2b"/><path d="M715,818.47v7.3h5v4.08h-5v12a2.72,2.72,0,0,0,3.21,3.16,7.36,7.36,0,0,0,1.78-.19v3.84a8.94,8.94,0,0,1-3.07.43,6.36,6.36,0,0,1-4.71-1.72,6.58,6.58,0,0,1-1.73-4.85V829.85h-4.41v-4.08h1.25a3.39,3.39,0,0,0,2.66-1,3.68,3.68,0,0,0,.89-2.57v-3.74Z" style="fill:#2b2b2b"/><path d="M740.81,840.93l3.89,1.35a10.3,10.3,0,0,1-3.74,5.26,10.86,10.86,0,0,1-6.63,2,11.3,11.3,0,0,1-8.23-3.33,12.07,12.07,0,0,1-3.39-9A12.22,12.22,0,0,1,726,828.5a11.12,11.12,0,0,1,15.94-.17,12.78,12.78,0,0,1,2.92,8.81,9.5,9.5,0,0,1-.09,1.44H727.37a6.92,6.92,0,0,0,2,5,6.7,6.7,0,0,0,4.92,2A6.23,6.23,0,0,0,740.81,840.93Zm-13.29-6h12.62a5.83,5.83,0,0,0-6.34-5.9,6,6,0,0,0-4.41,1.75A6.26,6.26,0,0,0,727.52,834.93Z" style="fill:#2b2b2b"/><path d="M753.92,835.51v13.34H749.4V825.77h4.42v3.31a7.65,7.65,0,0,1,7.1-4,7.52,7.52,0,0,1,6.12,2.55,9.84,9.84,0,0,1,2.14,6.57v14.64h-4.51V835q0-5.81-5.38-5.81a4.74,4.74,0,0,0-4,1.8A7.15,7.15,0,0,0,753.92,835.51Z" style="fill:#2b2b2b"/><path d="M797.6,829.85H792v19h-4.66v-19H783.1v-4.08h4.27v-3.89a7.75,7.75,0,0,1,2.16-5.81A7.44,7.44,0,0,1,795,814a4.9,4.9,0,0,1,2.68.48v4a5.44,5.44,0,0,0-2-.29,3.92,3.92,0,0,0-2.57.89,3.75,3.75,0,0,0-1.08,3v3.65h5.57Z" style="fill:#2b2b2b"/><path d="M801.7,828.53a12,12,0,0,1,16.94,0,13.25,13.25,0,0,1,0,17.56,12.12,12.12,0,0,1-17,0,12.26,12.26,0,0,1-3.31-8.8A12.13,12.13,0,0,1,801.7,828.53Zm3.36,14.83a7.08,7.08,0,0,0,10.22,0,9.8,9.8,0,0,0,0-12.1,7.08,7.08,0,0,0-10.22,0,9.8,9.8,0,0,0,0,12.1Z" style="fill:#2b2b2b"/><path d="M839.35,825.53v4.8a13.24,13.24,0,0,0-2-.15q-6.35,0-6.34,7.11v11.56h-4.51V825.77H831v4a7.59,7.59,0,0,1,8.4-4.27Z" style="fill:#2b2b2b"/><path d="M869.93,845.73v-.38a7.56,7.56,0,0,1-2.76,2.95,8,8,0,0,1-4.39,1.18,10,10,0,0,1-7.95-3.48,12.94,12.94,0,0,1-3-8.76,12.59,12.59,0,0,1,3.08-8.57,10,10,0,0,1,7.87-3.53,8.51,8.51,0,0,1,4.61,1.13,6,6,0,0,1,2.44,2.76V814.1h4.47v30.48a34.47,34.47,0,0,0,.24,4.27h-4.37A17.83,17.83,0,0,1,869.93,845.73Zm-13.49-8.49a9.39,9.39,0,0,0,1.8,6,6,6,0,0,0,5,2.3,5.83,5.83,0,0,0,4.85-2.35,9.53,9.53,0,0,0,1.82-6,9,9,0,0,0-1.77-5.81,5.91,5.91,0,0,0-4.85-2.2,6.13,6.13,0,0,0-5,2.25A8.93,8.93,0,0,0,856.44,837.24Z" style="fill:#2b2b2b"/><path d="M897,840.93l3.89,1.35a10.3,10.3,0,0,1-3.74,5.26,10.86,10.86,0,0,1-6.63,2,11.3,11.3,0,0,1-8.23-3.33,12.07,12.07,0,0,1-3.38-9,12.22,12.22,0,0,1,3.26-8.74,11.12,11.12,0,0,1,15.94-.17,12.78,12.78,0,0,1,2.92,8.81,9.5,9.5,0,0,1-.09,1.44H883.56a6.92,6.92,0,0,0,2,5,6.7,6.7,0,0,0,4.92,2A6.23,6.23,0,0,0,897,840.93Zm-13.29-6h12.62A5.83,5.83,0,0,0,890,829a6,6,0,0,0-4.41,1.75A6.26,6.26,0,0,0,883.71,834.93Z" style="fill:#2b2b2b"/><path d="M921.82,840.93l3.89,1.35a10.31,10.31,0,0,1-3.75,5.26,10.81,10.81,0,0,1-6.62,2,11.29,11.29,0,0,1-8.23-3.33,12.07,12.07,0,0,1-3.39-9A12.22,12.22,0,0,1,907,828.5a11.1,11.1,0,0,1,15.93-.17,12.79,12.79,0,0,1,2.93,8.81,8.23,8.23,0,0,1-.1,1.44H908.38a6.92,6.92,0,0,0,2,5,6.69,6.69,0,0,0,4.92,2A6.24,6.24,0,0,0,921.82,840.93Zm-13.3-6h12.63a5.83,5.83,0,0,0-6.34-5.9,6,6,0,0,0-4.42,1.75A6.3,6.3,0,0,0,908.52,834.93Z" style="fill:#2b2b2b"/><path d="M934.87,858h-4.46v-32.2h4.37v3.6a7.73,7.73,0,0,1,3-3,9.28,9.28,0,0,1,4.7-1.15,9.55,9.55,0,0,1,7.8,3.41,14.64,14.64,0,0,1-.09,17.37,9.71,9.71,0,0,1-7.85,3.46,9.3,9.3,0,0,1-4.51-1.06,7.6,7.6,0,0,1-3-2.69Zm13.63-20.68a8.91,8.91,0,0,0-1.84-5.79,6.08,6.08,0,0,0-5-2.28,6.15,6.15,0,0,0-5,2.28,8.77,8.77,0,0,0-1.9,5.79,8.91,8.91,0,0,0,1.9,5.88,6.15,6.15,0,0,0,5,2.28,6.07,6.07,0,0,0,4.94-2.28A9,9,0,0,0,948.5,837.29Z" style="fill:#2b2b2b"/><path d="M978.17,829.22a6.68,6.68,0,0,0-5,2.11,8.24,8.24,0,0,0-2,6,8.33,8.33,0,0,0,2,6,6.63,6.63,0,0,0,5,2.16,6.13,6.13,0,0,0,4.39-1.44,7.32,7.32,0,0,0,2-3.31l4,1.73a10.88,10.88,0,0,1-3.62,5,10.44,10.44,0,0,1-6.79,2.16,11,11,0,0,1-8.35-3.5,12.28,12.28,0,0,1-3.32-8.78,12.16,12.16,0,0,1,3.32-8.81,11,11,0,0,1,8.3-3.43,10.42,10.42,0,0,1,6.84,2.16,10,10,0,0,1,3.43,5.18l-4.08,1.73a7.2,7.2,0,0,0-2-3.46A5.74,5.74,0,0,0,978.17,829.22Z" style="fill:#2b2b2b"/><path d="M997.22,835.27v13.58h-4.51V814.1h4.51v14.36a7.92,7.92,0,0,1,7-3.37,7.52,7.52,0,0,1,6.12,2.55,9.84,9.84,0,0,1,2.14,6.57v14.64H1008V835c0-3.87-1.8-5.81-5.38-5.81a4.75,4.75,0,0,0-3.89,1.71A7.15,7.15,0,0,0,997.22,835.27Z" style="fill:#2b2b2b"/><path d="M1017.05,842.66a6.23,6.23,0,0,1,1.92-4.77,9,9,0,0,1,5.09-2.24l6.24-.91c1.18-.16,1.77-.73,1.77-1.73a3.84,3.84,0,0,0-1.25-3,5.33,5.33,0,0,0-3.74-1.15,5.09,5.09,0,0,0-3.65,1.27,5.33,5.33,0,0,0-1.58,3.38l-4.32-1a7.58,7.58,0,0,1,3-5.41,10.18,10.18,0,0,1,6.43-2.08c3.27,0,5.68.79,7.25,2.37a8.27,8.27,0,0,1,2.35,6.07v11.57a23.26,23.26,0,0,0,.29,3.79h-4.41a17.89,17.89,0,0,1-.24-3.12,8.42,8.42,0,0,1-7.44,3.84,7.81,7.81,0,0,1-5.57-2A6.5,6.5,0,0,1,1017.05,842.66Zm8.35,3.12a7,7,0,0,0,4.85-1.63q1.82-1.64,1.82-5.18v-1.06l-7,1.06a4.42,4.42,0,0,0-2.45,1.1,3.08,3.08,0,0,0-.91,2.35,3.16,3.16,0,0,0,1,2.35A3.68,3.68,0,0,0,1025.4,845.78Z" style="fill:#2b2b2b"/><path d="M1046.9,835.51v13.34h-4.51V825.77h4.42v3.31a7.64,7.64,0,0,1,7.1-4,7.52,7.52,0,0,1,6.12,2.55,9.84,9.84,0,0,1,2.14,6.57v14.64h-4.51V835c0-3.87-1.8-5.81-5.38-5.81a4.74,4.74,0,0,0-4,1.8A7.16,7.16,0,0,0,1046.9,835.51Z" style="fill:#2b2b2b"/><path d="M1066.49,850.1l4.37-1a6.11,6.11,0,0,0,6.28,5.67q7.06,0,7.06-7.49V844a6.65,6.65,0,0,1-2.71,2.73,8.55,8.55,0,0,1-4.35,1.06,10.07,10.07,0,0,1-7.6-3.14,11.19,11.19,0,0,1-3-8,11.4,11.4,0,0,1,3-8,9.91,9.91,0,0,1,7.63-3.24q5.28,0,7.11,3.65v-3.21h4.46v21.36a14.83,14.83,0,0,1-.6,4.29,11.17,11.17,0,0,1-1.9,3.67,8.55,8.55,0,0,1-3.62,2.64,14.23,14.23,0,0,1-5.45,1,11,11,0,0,1-7.24-2.42A9,9,0,0,1,1066.49,850.1Zm11.33-6.14a6.08,6.08,0,0,0,4.75-2,8.79,8.79,0,0,0,0-10.71,6.11,6.11,0,0,0-4.75-2,6.26,6.26,0,0,0-4.83,2,7.68,7.68,0,0,0-1.85,5.38,7.76,7.76,0,0,0,1.8,5.4A6.28,6.28,0,0,0,1077.82,844Z" style="fill:#2b2b2b"/><path d="M1110.94,840.93l3.88,1.35a10.3,10.3,0,0,1-3.74,5.26,10.81,10.81,0,0,1-6.62,2,11.31,11.31,0,0,1-8.24-3.33,12.1,12.1,0,0,1-3.38-9,12.26,12.26,0,0,1,3.26-8.74,11.12,11.12,0,0,1,15.94-.17,12.79,12.79,0,0,1,2.93,8.81,8.23,8.23,0,0,1-.1,1.44H1097.5a6.92,6.92,0,0,0,2,5,6.67,6.67,0,0,0,4.92,2A6.24,6.24,0,0,0,1110.94,840.93Zm-13.3-6h12.62a5.81,5.81,0,0,0-6.33-5.9,6,6,0,0,0-4.42,1.75A6.3,6.3,0,0,0,1097.64,834.93Z" style="fill:#2b2b2b"/><path d="M1117.37,842.85l4.08-1.44a4.8,4.8,0,0,0,1.63,3.1,5.44,5.44,0,0,0,3.74,1.22,4.33,4.33,0,0,0,2.88-.88,2.75,2.75,0,0,0,1.06-2.19c0-1.53-1-2.53-3-3l-3.93-.87a7.58,7.58,0,0,1-4.23-2.3,6.09,6.09,0,0,1-1.53-4.18,6.64,6.64,0,0,1,2.42-5.13,8.4,8.4,0,0,1,5.78-2.16,11.19,11.19,0,0,1,3.94.64,6.93,6.93,0,0,1,2.69,1.71,9.65,9.65,0,0,1,1.44,2,8.21,8.21,0,0,1,.72,1.87l-4,1.49a5.07,5.07,0,0,0-.34-1.13,6.21,6.21,0,0,0-.74-1.22,3.59,3.59,0,0,0-1.47-1.09,5.78,5.78,0,0,0-2.26-.4,4.09,4.09,0,0,0-2.75.91,2.72,2.72,0,0,0-1.08,2.16c0,1.47.87,2.4,2.64,2.78l3.74.82a8.8,8.8,0,0,1,4.73,2.47,6.25,6.25,0,0,1,1.65,4.39,6.81,6.81,0,0,1-2.23,5,8.46,8.46,0,0,1-6.21,2.2,9.72,9.72,0,0,1-6.68-2.13A7.53,7.53,0,0,1,1117.37,842.85Z" style="fill:#2b2b2b"/><path d="M1150.75,819.31a3.11,3.11,0,0,1-.94-2.28,3.19,3.19,0,0,1,.94-2.3,3.07,3.07,0,0,1,2.28-1,3.23,3.23,0,0,1,3.26,3.26,3.05,3.05,0,0,1-1,2.28,3.17,3.17,0,0,1-2.3.94A3.13,3.13,0,0,1,1150.75,819.31Zm4.54,29.54h-4.47V825.77h4.47Z" style="fill:#2b2b2b"/><path d="M1166.28,835.51v13.34h-4.51V825.77h4.41v3.31a7.66,7.66,0,0,1,7.11-4,7.55,7.55,0,0,1,6.12,2.55,9.88,9.88,0,0,1,2.13,6.57v14.64H1177V835q0-5.81-5.38-5.81a4.77,4.77,0,0,0-4,1.8A7.15,7.15,0,0,0,1166.28,835.51Z" style="fill:#2b2b2b"/><path d="M1193.59,818.47v7.3h5v4.08h-5v12a3.4,3.4,0,0,0,.74,2.4,3.35,3.35,0,0,0,2.47.76,7.25,7.25,0,0,0,1.78-.19v3.84a8.9,8.9,0,0,1-3.07.43,6.39,6.39,0,0,1-4.71-1.72,6.58,6.58,0,0,1-1.72-4.85V829.85h-4.42v-4.08h1.25a3.39,3.39,0,0,0,2.66-1,3.64,3.64,0,0,0,.89-2.57v-3.74Z" style="fill:#2b2b2b"/><path d="M1204.56,828.53a12,12,0,0,1,16.94,0,12.13,12.13,0,0,1,3.34,8.76,12.26,12.26,0,0,1-3.31,8.8,12.11,12.11,0,0,1-17,0,13.24,13.24,0,0,1,0-17.56Zm3.36,14.83a7.08,7.08,0,0,0,10.22,0,9.8,9.8,0,0,0,0-12.1,7.08,7.08,0,0,0-10.22,0,9.8,9.8,0,0,0,0,12.1Z" style="fill:#2b2b2b"/><path d="M1241.61,828.53a12.06,12.06,0,0,1,17,0,13.27,13.27,0,0,1,0,17.56,12.11,12.11,0,0,1-17,0,13.27,13.27,0,0,1,0-17.56Zm3.36,14.83a7.09,7.09,0,0,0,10.23,0,9.8,9.8,0,0,0,0-12.1,7.09,7.09,0,0,0-10.23,0,9.84,9.84,0,0,0,0,12.1Z" style="fill:#2b2b2b"/><path d="M1270.92,848.85h-4.47V814.1h4.47V829a7.22,7.22,0,0,1,2.9-2.81,10.6,10.6,0,0,1,12.55,2.28,14.92,14.92,0,0,1-.09,17.5,9.68,9.68,0,0,1-7.87,3.48q-5.19,0-7.49-4Zm11.76-5.66a9.07,9.07,0,0,0,1.87-6,8.9,8.9,0,0,0-1.85-5.93,6.69,6.69,0,0,0-9.91,0,8.67,8.67,0,0,0-1.92,5.9,9,9,0,0,0,1.92,6,6.17,6.17,0,0,0,4.94,2.28A6.1,6.1,0,0,0,1282.68,843.19Z" style="fill:#2b2b2b"/><path d="M1293.72,851.35V825.77h4.51v25.77a7.61,7.61,0,0,1-1.73,5.16,5.84,5.84,0,0,1-4.66,2,8.82,8.82,0,0,1-2.68-.33v-3.79a7.81,7.81,0,0,0,1.44.14Q1293.72,854.71,1293.72,851.35Zm-.08-32.14a3.1,3.1,0,0,1-.93-2.28,3.19,3.19,0,0,1,.93-2.3,3.08,3.08,0,0,1,2.28-1,3.17,3.17,0,0,1,2.31.94,3.11,3.11,0,0,1,1,2.32,3.05,3.05,0,0,1-1,2.28,3.17,3.17,0,0,1-2.31.94A3.1,3.1,0,0,1,1293.64,819.21Z" style="fill:#2b2b2b"/><path d="M1320.93,840.93l3.89,1.35a10.3,10.3,0,0,1-3.74,5.26,10.86,10.86,0,0,1-6.63,2,11.3,11.3,0,0,1-8.23-3.33,12.07,12.07,0,0,1-3.38-9,12.22,12.22,0,0,1,3.26-8.74,11.12,11.12,0,0,1,15.94-.17,12.78,12.78,0,0,1,2.92,8.81,9.5,9.5,0,0,1-.09,1.44h-17.38a7,7,0,0,0,2,5,6.7,6.7,0,0,0,4.92,2A6.23,6.23,0,0,0,1320.93,840.93Zm-13.29-6h12.62a5.83,5.83,0,0,0-6.34-5.9,6,6,0,0,0-4.41,1.75A6.26,6.26,0,0,0,1307.64,834.93Z" style="fill:#2b2b2b"/><path d="M1339.22,829.22a6.68,6.68,0,0,0-5,2.11,8.24,8.24,0,0,0-2,6,8.33,8.33,0,0,0,2,6,6.63,6.63,0,0,0,5,2.16,6.13,6.13,0,0,0,4.39-1.44,7.24,7.24,0,0,0,2-3.31l4,1.73a10.88,10.88,0,0,1-3.62,5,10.44,10.44,0,0,1-6.79,2.16,11,11,0,0,1-8.35-3.5,12.28,12.28,0,0,1-3.32-8.78,12.16,12.16,0,0,1,3.32-8.81,11,11,0,0,1,8.3-3.43,10.38,10.38,0,0,1,6.84,2.16,10,10,0,0,1,3.43,5.18l-4.08,1.73a7.26,7.26,0,0,0-2-3.46A5.78,5.78,0,0,0,1339.22,829.22Z" style="fill:#2b2b2b"/><path d="M1359.81,818.47v7.3h5v4.08h-5v12A2.74,2.74,0,0,0,1363,845a7.22,7.22,0,0,0,1.77-.19v3.84a8.87,8.87,0,0,1-3.07.43,6.35,6.35,0,0,1-4.7-1.72,6.58,6.58,0,0,1-1.73-4.85V829.85h-4.42v-4.08h1.25a3.41,3.41,0,0,0,2.67-1,3.68,3.68,0,0,0,.88-2.57v-3.74Z" style="fill:#2b2b2b"/><path d="M1367.68,842.85l4.08-1.44a4.85,4.85,0,0,0,1.63,3.1,5.46,5.46,0,0,0,3.75,1.22,4.35,4.35,0,0,0,2.88-.88,2.78,2.78,0,0,0,1.06-2.19c0-1.53-1-2.53-3-3l-3.94-.87a7.55,7.55,0,0,1-4.22-2.3,6.05,6.05,0,0,1-1.54-4.18,6.65,6.65,0,0,1,2.43-5.13,8.38,8.38,0,0,1,5.78-2.16,11.27,11.27,0,0,1,3.94.64,6.93,6.93,0,0,1,2.69,1.71,9.65,9.65,0,0,1,1.44,2,8.66,8.66,0,0,1,.71,1.87l-4,1.49a5,5,0,0,0-.33-1.13,6.3,6.3,0,0,0-.75-1.22,3.49,3.49,0,0,0-1.46-1.09,5.81,5.81,0,0,0-2.26-.4,4.12,4.12,0,0,0-2.76.91,2.75,2.75,0,0,0-1.08,2.16c0,1.47.88,2.4,2.64,2.78l3.75.82a8.77,8.77,0,0,1,4.72,2.47,6.22,6.22,0,0,1,1.66,4.39,6.85,6.85,0,0,1-2.23,5,8.47,8.47,0,0,1-6.22,2.2,9.7,9.7,0,0,1-6.67-2.13A7.59,7.59,0,0,1,1367.68,842.85Z" style="fill:#2b2b2b"/><path d="M1387.94,820.1a2.81,2.81,0,0,1,2.93-2.93,2.8,2.8,0,0,1,2.06.82,2.85,2.85,0,0,1,.82,2.11,4.84,4.84,0,0,1-.1.87l-2,9H1390l-2-9A4.16,4.16,0,0,1,1387.94,820.1Z" style="fill:#2b2b2b"/><path d="M1407.67,842.66a6.23,6.23,0,0,1,1.92-4.77,9,9,0,0,1,5.09-2.24l6.24-.91c1.18-.16,1.77-.73,1.77-1.73a3.84,3.84,0,0,0-1.25-3,5.33,5.33,0,0,0-3.74-1.15,5.09,5.09,0,0,0-3.65,1.27,5.28,5.28,0,0,0-1.58,3.38l-4.32-1a7.58,7.58,0,0,1,3-5.41,10.18,10.18,0,0,1,6.43-2.08c3.27,0,5.68.79,7.25,2.37a8.27,8.27,0,0,1,2.35,6.07v11.57a23.26,23.26,0,0,0,.29,3.79h-4.42a19,19,0,0,1-.23-3.12,8.42,8.42,0,0,1-7.45,3.84,7.8,7.8,0,0,1-5.56-2A6.5,6.5,0,0,1,1407.67,842.66Zm8.35,3.12a7,7,0,0,0,4.85-1.63q1.82-1.64,1.82-5.18v-1.06l-7.06,1.06a4.39,4.39,0,0,0-2.44,1.1,3.08,3.08,0,0,0-.91,2.35,3.16,3.16,0,0,0,1,2.35A3.67,3.67,0,0,0,1416,845.78Z" style="fill:#2b2b2b"/><path d="M1439.06,818.47v7.3h5v4.08h-5v12a3.4,3.4,0,0,0,.74,2.4,3.35,3.35,0,0,0,2.47.76,7.25,7.25,0,0,0,1.78-.19v3.84a8.9,8.9,0,0,1-3.07.43,6.38,6.38,0,0,1-4.71-1.72,6.58,6.58,0,0,1-1.72-4.85V829.85h-4.42v-4.08h1.25a3.39,3.39,0,0,0,2.66-1,3.68,3.68,0,0,0,.89-2.57v-3.74Z" style="fill:#2b2b2b"/><path d="M1454.9,818.47v7.3h5v4.08h-5v12a3.4,3.4,0,0,0,.74,2.4,3.35,3.35,0,0,0,2.47.76,7.25,7.25,0,0,0,1.78-.19v3.84a8.9,8.9,0,0,1-3.07.43,6.38,6.38,0,0,1-4.71-1.72,6.58,6.58,0,0,1-1.72-4.85V829.85H1446v-4.08h1.25a3.39,3.39,0,0,0,2.66-1,3.68,3.68,0,0,0,.89-2.57v-3.74Z" style="fill:#2b2b2b"/><path d="M1477,825.53v4.8a13.37,13.37,0,0,0-2-.15q-6.35,0-6.34,7.11v11.56h-4.51V825.77h4.42v4a7.16,7.16,0,0,1,6.91-4.42A7.31,7.31,0,0,1,1477,825.53Z" style="fill:#2b2b2b"/><path d="M1480.55,819.31a3.1,3.1,0,0,1-.93-2.28,3.18,3.18,0,0,1,.93-2.3,3.08,3.08,0,0,1,2.28-1,3.2,3.2,0,0,1,2.31.93,3.13,3.13,0,0,1,1,2.33,3.05,3.05,0,0,1-1,2.28,3.21,3.21,0,0,1-2.31.94A3.14,3.14,0,0,1,1480.55,819.31Zm4.54,29.54h-4.47V825.77h4.47Z" style="fill:#2b2b2b"/><path d="M1496,848.85h-4.46V814.1H1496V829a7.25,7.25,0,0,1,2.91-2.81,10.6,10.6,0,0,1,12.55,2.28,14.94,14.94,0,0,1-.1,17.5,9.67,9.67,0,0,1-7.87,3.48q-5.18,0-7.49-4Zm11.76-5.66a9.07,9.07,0,0,0,1.88-6,8.9,8.9,0,0,0-1.85-5.93,6.69,6.69,0,0,0-9.91,0,8.62,8.62,0,0,0-1.92,5.9,8.93,8.93,0,0,0,1.92,6,6.15,6.15,0,0,0,4.94,2.28A6.07,6.07,0,0,0,1507.79,843.19Z" style="fill:#2b2b2b"/><path d="M1533.81,846.07a6,6,0,0,1-2.78,2.62,9.35,9.35,0,0,1-4,.88,8,8,0,0,1-6.28-2.61,9.58,9.58,0,0,1-2.36-6.65V825.77h4.52v13.87a6.86,6.86,0,0,0,1.27,4.27,4.63,4.63,0,0,0,4,1.68,5.12,5.12,0,0,0,4.08-1.61,6.31,6.31,0,0,0,1.39-4.29V825.77h4.51v18.81a36,36,0,0,0,.24,4.27H1534A15.94,15.94,0,0,1,1533.81,846.07Z" style="fill:#2b2b2b"/><path d="M1550.61,818.47v7.3h5v4.08h-5v12a3.4,3.4,0,0,0,.74,2.4,3.35,3.35,0,0,0,2.47.76,7.25,7.25,0,0,0,1.78-.19v3.84a8.9,8.9,0,0,1-3.07.43,6.38,6.38,0,0,1-4.71-1.72,6.58,6.58,0,0,1-1.72-4.85V829.85h-4.42v-4.08h1.25a3.39,3.39,0,0,0,2.66-1,3.64,3.64,0,0,0,.89-2.57v-3.74Z" style="fill:#2b2b2b"/><path d="M1576.39,840.93l3.88,1.35a10.3,10.3,0,0,1-3.74,5.26,10.81,10.81,0,0,1-6.62,2,11.31,11.31,0,0,1-8.24-3.33,12.1,12.1,0,0,1-3.38-9,12.26,12.26,0,0,1,3.26-8.74,11.12,11.12,0,0,1,15.94-.17,12.79,12.79,0,0,1,2.93,8.81,9.34,9.34,0,0,1-.1,1.44H1563a6.92,6.92,0,0,0,2,5,6.67,6.67,0,0,0,4.92,2A6.24,6.24,0,0,0,1576.39,840.93Zm-13.3-6h12.62a5.81,5.81,0,0,0-6.33-5.9,6,6,0,0,0-4.42,1.75A6.3,6.3,0,0,0,1563.09,834.93Z" style="fill:#2b2b2b"/><path d="M1582.82,842.85l4.08-1.44a4.8,4.8,0,0,0,1.63,3.1,5.45,5.45,0,0,0,3.74,1.22,4.33,4.33,0,0,0,2.88-.88,2.75,2.75,0,0,0,1.06-2.19c0-1.53-1-2.53-3-3l-3.93-.87a7.58,7.58,0,0,1-4.23-2.3,6.09,6.09,0,0,1-1.53-4.18,6.67,6.67,0,0,1,2.42-5.13,8.42,8.42,0,0,1,5.79-2.16,11.17,11.17,0,0,1,3.93.64,6.93,6.93,0,0,1,2.69,1.71,9.65,9.65,0,0,1,1.44,2,8.21,8.21,0,0,1,.72,1.87l-4,1.49a4.57,4.57,0,0,0-.33-1.13,5.84,5.84,0,0,0-.75-1.22,3.49,3.49,0,0,0-1.46-1.09,5.76,5.76,0,0,0-2.25-.4,4.15,4.15,0,0,0-2.77.91,2.78,2.78,0,0,0-1.08,2.16c0,1.47.89,2.4,2.64,2.78l3.75.82A8.8,8.8,0,0,1,1599,838a6.25,6.25,0,0,1,1.65,4.39,6.81,6.81,0,0,1-2.23,5,8.47,8.47,0,0,1-6.22,2.2,9.71,9.71,0,0,1-6.67-2.13A7.53,7.53,0,0,1,1582.82,842.85Z" style="fill:#2b2b2b"/><path d="M1606,848.13a3.19,3.19,0,0,1-1-2.35,3.27,3.27,0,0,1,1-2.37,3.16,3.16,0,0,1,2.35-1,3.38,3.38,0,0,1,3.37,3.36,3.14,3.14,0,0,1-1,2.35,3.24,3.24,0,0,1-2.38,1A3.17,3.17,0,0,1,1606,848.13Z" style="fill:#2b2b2b"/><path d="M736.79,638.17V589h10.34v49.22Z" style="fill:#2b2b2b"/><path d="M759.64,588a6.05,6.05,0,1,1-6,6A6.08,6.08,0,0,1,759.64,588Zm-5.1,50.17V604.38h10.34v33.79Z" style="fill:#2b2b2b"/><path d="M778.2,627c.14,2.32,1.77,4.56,5.31,4.56,2.65,0,3.94-1.43,3.94-2.92,0-1.23-.82-2.25-3.33-2.79l-3.88-.89c-7.2-1.56-10.06-5.64-10.06-10.4,0-6.19,5.44-11.22,13-11.22,9.79,0,13.19,6.12,13.53,10.07L788.13,615a4.44,4.44,0,0,0-4.83-4.15c-2,0-3.67,1.16-3.67,2.93,0,1.42,1.16,2.24,2.65,2.51l4.49.89c7,1.42,10.4,5.64,10.4,10.6,0,5.78-4.42,11.42-13.46,11.42-10.61,0-14-6.86-14.28-10.6Z" style="fill:#2b2b2b"/><path d="M814.58,604.38h6.6v9h-6.6v12.64c0,2.79,1.5,3.54,3.74,3.54a13.11,13.11,0,0,0,2.72-.34v8.56a12.15,12.15,0,0,1-5.37,1c-7,0-11.29-4.15-11.29-10.88V613.43h-6v-9h1.7c3.54,0,5.24-2.38,5.24-5.5v-4.36h9.24Z" style="fill:#2b2b2b"/><path d="M857.15,628.45c-1.63,5.85-7,10.74-15.57,10.74-9.32,0-17.61-6.66-17.61-18,0-10.88,8.09-17.82,16.86-17.82,10.47,0,16.93,6.46,16.93,17.34a23.2,23.2,0,0,1-.2,3.2H834c.2,3.8,3.67,6.52,7.68,6.52,3.74,0,5.85-1.76,6.8-4.42Zm-9.38-11.22c-.14-2.58-1.91-5.71-6.8-5.71a6.46,6.46,0,0,0-6.74,5.71Z" style="fill:#2b2b2b"/><path d="M873.06,638.17H862.73V604.38h10v3.88c1.84-3.2,6-4.76,9.45-4.76,8.5,0,12.31,6,12.31,13.46v21.21H884.14V618.73c0-3.33-1.76-5.85-5.5-5.85-3.4,0-5.58,2.52-5.58,5.92Z" style="fill:#2b2b2b"/><path d="M909.44,618.66l8-1.22c1.83-.27,2.44-1.16,2.44-2.32,0-2-1.7-3.67-5-3.67a5.44,5.44,0,0,0-5.78,5l-9-1.84c.4-4.83,4.89-11.22,14.82-11.22,10.95,0,15,6.12,15,13.06v16.52a32.75,32.75,0,0,0,.41,5.23H921a16.3,16.3,0,0,1-.34-3.8c-1.77,2.85-5,4.76-9.52,4.76-7.41,0-11.69-4.9-11.69-10.27C899.45,622.88,903.87,619.48,909.44,618.66Zm10.4,6.26v-1.5l-6.39,1c-2.17.34-3.8,1.36-3.8,3.74,0,1.77,1.15,3.47,4,3.47C916.72,631.65,919.84,630.15,919.84,624.92Z" style="fill:#2b2b2b"/><path d="M936.91,638.17V589H947v18.63c1.43-2.11,5.17-4,9.8-4,9.79,0,15.7,7.47,15.7,17.61,0,10.33-6.66,17.74-16.11,17.74-4.49,0-8-2-9.52-4.55v3.8Zm17.68-25.29c-4,0-7.68,2.65-7.68,8.36s3.67,8.44,7.68,8.44,7.62-2.79,7.62-8.44S958.6,612.88,954.59,612.88Z" style="fill:#2b2b2b"/><path d="M977.51,638.17V589h10.33v49.22Z" style="fill:#2b2b2b"/><path d="M1026,628.45c-1.63,5.85-7,10.74-15.57,10.74-9.32,0-17.61-6.66-17.61-18,0-10.88,8.09-17.82,16.86-17.82,10.47,0,16.93,6.46,16.93,17.34a23.2,23.2,0,0,1-.2,3.2h-23.53c.21,3.8,3.67,6.52,7.68,6.52,3.74,0,5.85-1.76,6.8-4.42Zm-9.38-11.22c-.14-2.58-1.91-5.71-6.8-5.71a6.44,6.44,0,0,0-6.73,5.71Z" style="fill:#2b2b2b"/><path d="M1030.07,622.33V613h20.4v9.31Z" style="fill:#2b2b2b"/><path d="M1089.64,632.12c0,3.06.2,5.31.27,6H1080a22.83,22.83,0,0,1-.27-3.26c-1.56,2.31-5,4-9,4-9.52,0-16.73-7.34-16.73-17.74,0-10.07,6.8-17.61,16.39-17.61,5.78,0,8.29,2.17,9.11,3.46V589h10.2ZM1072,629.68c4,0,7.61-2.86,7.61-8.44s-3.6-8.36-7.61-8.36-7.62,2.72-7.62,8.36S1068,629.68,1072,629.68Z" style="fill:#2b2b2b"/><path d="M1104.87,618.66l8-1.22c1.83-.27,2.45-1.16,2.45-2.32,0-2-1.71-3.67-5-3.67a5.44,5.44,0,0,0-5.78,5l-9-1.84c.4-4.83,4.89-11.22,14.82-11.22,10.95,0,15,6.12,15,13.06v16.52a32.75,32.75,0,0,0,.41,5.23h-9.32a16.3,16.3,0,0,1-.34-3.8c-1.77,2.85-5,4.76-9.52,4.76-7.41,0-11.69-4.9-11.69-10.27C1094.88,622.88,1099.3,619.48,1104.87,618.66Zm10.41,6.26v-1.5l-6.4,1c-2.17.34-3.8,1.36-3.8,3.74,0,1.77,1.15,3.47,4,3.47C1112.15,631.65,1115.28,630.15,1115.28,624.92Z" style="fill:#2b2b2b"/><path d="M1144.38,604.38H1151v9h-6.59v12.64c0,2.79,1.5,3.54,3.74,3.54a13.11,13.11,0,0,0,2.72-.34v8.56a12.15,12.15,0,0,1-5.37,1c-7,0-11.29-4.15-11.29-10.88V613.43h-6v-9h1.7c3.53,0,5.23-2.38,5.23-5.5v-4.36h9.25Z" style="fill:#2b2b2b"/><path d="M1164.85,618.66l8-1.22c1.84-.27,2.45-1.16,2.45-2.32,0-2-1.7-3.67-5-3.67a5.43,5.43,0,0,0-5.78,5l-9-1.84c.41-4.83,4.9-11.22,14.82-11.22,11,0,15,6.12,15,13.06v16.52a32.75,32.75,0,0,0,.41,5.23h-9.32a17,17,0,0,1-.34-3.8c-1.76,2.85-5,4.76-9.51,4.76-7.42,0-11.7-4.9-11.7-10.27C1154.85,622.88,1159.27,619.48,1164.85,618.66Zm10.4,6.26v-1.5l-6.39,1c-2.18.34-3.81,1.36-3.81,3.74,0,1.77,1.16,3.47,4,3.47C1172.12,631.65,1175.25,630.15,1175.25,624.92Z" style="fill:#2b2b2b"/><text transform="translate(809.33 722.56)" style="font-size:49px;fill:#5e5e5e;font-family:CircularStd-Black, Circular Std;font-weight:800;letter-spacing:-0.02499202806122449em">Elemen<tspan x="163.31" y="0" style="letter-spacing:-0.01602359693877551em">t</tspan><tspan x="181.25" y="0" style="letter-spacing:-0.025011957908163265em">um.js</tspan></text></g><g id="Logo"><g style="opacity:0.30000000000000004"><polyline points="1135.89 452.6 1135.89 467.6 1120.89 467.6" style="fill:none;stroke:#000;stroke-miterlimit:10;stroke-width:7px"/><line x1="1090.52" y1="467.6" x2="801.99" y2="467.6" style="fill:none;stroke:#000;stroke-miterlimit:10;stroke-width:7px;stroke-dasharray:30.371400833129883,30.371400833129883"/><polyline points="786.81 467.6 771.81 467.6 771.81 452.6" style="fill:none;stroke:#000;stroke-miterlimit:10;stroke-width:7px"/><line x1="771.81" y1="422.22" x2="771.81" y2="133.7" style="fill:none;stroke:#000;stroke-miterlimit:10;stroke-width:7px;stroke-dasharray:30.371400833129883,30.371400833129883"/><polyline points="771.81 118.51 771.81 103.51 786.81 103.51" style="fill:none;stroke:#000;stroke-miterlimit:10;stroke-width:7px"/><line x1="817.18" y1="103.51" x2="1105.71" y2="103.51" style="fill:none;stroke:#000;stroke-miterlimit:10;stroke-width:7px;stroke-dasharray:30.371400833129883,30.371400833129883"/><polyline points="1120.89 103.51 1135.89 103.51 1135.89 118.51" style="fill:none;stroke:#000;stroke-miterlimit:10;stroke-width:7px"/><line x1="1135.89" y1="148.88" x2="1135.89" y2="437.41" style="fill:none;stroke:#000;stroke-miterlimit:10;stroke-width:7px;stroke-dasharray:30.371400833129883,30.371400833129883"/></g><path d="M854.09,294.05q3.1-2,12.4-5.51v-2.87a11.86,11.86,0,0,0-.67-4.8q-1.16-2.26-4.77-2.26a6.54,6.54,0,0,0-3.28.88,2.79,2.79,0,0,0-1.55,2.5,8.4,8.4,0,0,0,.17,1.37,10.28,10.28,0,0,1,.17,1.23,2.83,2.83,0,0,1-1.25,2.64,3.19,3.19,0,0,1-1.69.43,2.83,2.83,0,0,1-2.33-1,3.39,3.39,0,0,1-.82-2.22q0-2.35,2.93-4.95t8.56-2.58q6.56,0,8.89,4.26A14.71,14.71,0,0,1,872.1,288v13.55a9,9,0,0,0,.27,2.7,1.77,1.77,0,0,0,1.83,1.32,3.15,3.15,0,0,0,1.28-.23,13.92,13.92,0,0,0,1.76-1.15v1.75a11.24,11.24,0,0,1-2.33,2.17,6.87,6.87,0,0,1-3.86,1.28,3.72,3.72,0,0,1-3.32-1.49,6.65,6.65,0,0,1-1.14-3.54,31.94,31.94,0,0,1-4.39,3.31,11.57,11.57,0,0,1-5.85,1.82,7,7,0,0,1-5-2,6.89,6.89,0,0,1-2.13-5.19Q849.19,297.32,854.09,294.05Zm12.4-3.82a31.51,31.51,0,0,0-6.42,2.84c-3.24,2-4.86,4.28-4.86,6.83a5.2,5.2,0,0,0,2,4.53,4.93,4.93,0,0,0,2.94.94,8,8,0,0,0,4.28-1.25,3.66,3.66,0,0,0,2-3.17Z" style="fill:#545454"/><path d="M895,277.8v2.43h-6.89L888,299.7a13.08,13.08,0,0,0,.44,3.88,3.12,3.12,0,0,0,3.18,2.33,3.85,3.85,0,0,0,2.11-.57,10.83,10.83,0,0,0,2-1.83l.88.75-.74,1a10.83,10.83,0,0,1-3.72,3.35,8.51,8.51,0,0,1-3.79,1,5.33,5.33,0,0,1-5.4-3.55,14.66,14.66,0,0,1-.78-5.34V280.23h-3.68a1.24,1.24,0,0,1-.26-.2.46.46,0,0,1-.08-.27.84.84,0,0,1,.15-.53,10.42,10.42,0,0,1,1-.86,28.75,28.75,0,0,0,3.37-3.12c.68-.8,2.3-2.92,4.85-6.34a1,1,0,0,1,.52.07c.06,0,.08.21.08.5v8.32Z" style="fill:#545454"/><path d="M914.21,277.8v2.43h-6.89l-.07,19.47a12.76,12.76,0,0,0,.44,3.88,3.11,3.11,0,0,0,3.17,2.33,3.86,3.86,0,0,0,2.12-.57,10.83,10.83,0,0,0,2-1.83l.88.75-.74,1a10.83,10.83,0,0,1-3.72,3.35,8.51,8.51,0,0,1-3.79,1,5.33,5.33,0,0,1-5.4-3.55,14.66,14.66,0,0,1-.78-5.34V280.23h-3.68a1.24,1.24,0,0,1-.26-.2.46.46,0,0,1-.08-.27.84.84,0,0,1,.15-.53,10.42,10.42,0,0,1,1-.86,28.75,28.75,0,0,0,3.37-3.12c.68-.8,2.3-2.92,4.85-6.34a1,1,0,0,1,.52.07c.06,0,.08.21.08.5v8.32Z" style="fill:#545454"/><path d="M916.14,307.84c2.07-.18,3.44-.55,4.12-1.1s1-1.73,1-3.53V288a13,13,0,0,0-.62-4.78,2.28,2.28,0,0,0-2.28-1.44,7.18,7.18,0,0,0-.9.08c-.37.06-.76.13-1.16.22v-1.11l3.94-1.39c1.35-.47,2.28-.81,2.79-1,1.13-.43,2.28-.91,3.47-1.45.16,0,.26.05.29.17a3.32,3.32,0,0,1,.05.71v5.54a25.77,25.77,0,0,1,4.19-4.7,6.41,6.41,0,0,1,4.18-1.69,3.89,3.89,0,0,1,2.81,1,3.65,3.65,0,0,1,.26,4.92,2.65,2.65,0,0,1-2.08.94,3.86,3.86,0,0,1-2.58-1.18,3.64,3.64,0,0,0-2-1.18c-.79,0-1.76.64-2.9,1.91A5.85,5.85,0,0,0,927,287.5v15.24c0,1.93.45,3.28,1.35,4s2.4,1.11,4.5,1.06V309H916.14Z" style="fill:#545454"/><path d="M950.83,283.63a3.83,3.83,0,0,1-2.66,1.06,3.41,3.41,0,0,1-2.66-1.15,3.77,3.77,0,0,1-1-2.63,3.67,3.67,0,0,1,1.08-2.66,3.56,3.56,0,0,1,2.63-1.1,3.84,3.84,0,0,1,2.66,1.07,3.42,3.42,0,0,1,1.16,2.65A3.55,3.55,0,0,1,950.83,283.63Zm-5.27,24.78a3.67,3.67,0,0,1-1.1-2.7,3.71,3.71,0,0,1,1.08-2.65,3.52,3.52,0,0,1,2.67-1.13A3.94,3.94,0,0,1,951,303a3.5,3.5,0,0,1,1.18,2.66,3.81,3.81,0,0,1-1.11,2.67,3.91,3.91,0,0,1-3,1.18A3.41,3.41,0,0,1,945.56,308.41Z" style="fill:#545454"/><path d="M990.28,277.56v1.05a8.5,8.5,0,0,0-2.48.54,1.46,1.46,0,0,0-.73,1.49,3.52,3.52,0,0,0,.15,1c.11.32.28.8.53,1.43l7.1,17,6-15c.29-.75.57-1.52.83-2.34a6.68,6.68,0,0,0,.39-1.85,2,2,0,0,0-1.25-1.9,7.25,7.25,0,0,0-2-.4v-1.05h9.6v1.05a3.12,3.12,0,0,0-2.39,1.1,23.92,23.92,0,0,0-2.11,4.44l-9.76,24.33a6.28,6.28,0,0,1-.44.88.56.56,0,0,1-.48.24.68.68,0,0,1-.57-.39,10.14,10.14,0,0,1-.51-1L981.8,283.51a9.79,9.79,0,0,0-2.67-4.09,5.23,5.23,0,0,0-2.47-.81v-1.05Z" style="fill:#545454"/><path d="M1017.45,294.05q3.12-2,12.41-5.51v-2.87a11.82,11.82,0,0,0-.68-4.8c-.77-1.51-2.35-2.26-4.76-2.26a6.51,6.51,0,0,0-3.28.88,2.78,2.78,0,0,0-1.56,2.5,9.74,9.74,0,0,0,.17,1.37,10.28,10.28,0,0,1,.17,1.23,2.83,2.83,0,0,1-1.25,2.64,3.17,3.17,0,0,1-1.69.43,2.84,2.84,0,0,1-2.33-1,3.44,3.44,0,0,1-.81-2.22q0-2.35,2.92-4.95c2-1.72,4.8-2.58,8.57-2.58q6.56,0,8.89,4.26a14.71,14.71,0,0,1,1.25,6.79v13.55a9,9,0,0,0,.27,2.7,1.76,1.76,0,0,0,1.82,1.32,3.2,3.2,0,0,0,1.29-.23,14.84,14.84,0,0,0,1.75-1.15v1.75a11.24,11.24,0,0,1-2.33,2.17,6.84,6.84,0,0,1-3.85,1.28,3.75,3.75,0,0,1-3.33-1.49,6.64,6.64,0,0,1-1.13-3.54,32.55,32.55,0,0,1-4.4,3.31,11.57,11.57,0,0,1-5.84,1.82,7,7,0,0,1-5-2,6.89,6.89,0,0,1-2.13-5.19Q1012.55,297.32,1017.45,294.05Zm12.41-3.82a31.26,31.26,0,0,0-6.42,2.84c-3.25,2-4.87,4.28-4.87,6.83a5.2,5.2,0,0,0,2,4.53,4.91,4.91,0,0,0,2.94.94,8,8,0,0,0,4.27-1.25,3.67,3.67,0,0,0,2-3.17Z" style="fill:#545454"/><path d="M1042.16,308a8,8,0,0,0,4.26-1.27c.74-.64,1.11-1.9,1.11-3.77V270a8.59,8.59,0,0,0-.37-3.08,2.72,2.72,0,0,0-2.74-1.42,6.62,6.62,0,0,0-1,.1c-.37.07-.84.17-1.4.31v-1.12q4.56-1.22,11-3.24a.26.26,0,0,1,.29.2,5.08,5.08,0,0,1,0,.88v40.52c0,2,.34,3.23,1,3.8s2.08.94,4.19,1.1V309h-16.35Z" style="fill:#545454"/><path d="M817.67,185.81c6.1,0,7-3.35,7-6.35a51.73,51.73,0,0,0-.69-7.22,50.75,50.75,0,0,1-.69-7.13c0-7.91,5.16-11.26,12.46-11.26h1.81v4.72H836c-5.07,0-6.79,2.75-6.79,7.4a38.17,38.17,0,0,0,.6,6.1,39.33,39.33,0,0,1,.6,6.53c.09,5.5-2.32,8.25-6.18,9.28v.17c3.86.94,6.27,3.87,6.18,9.37a38.64,38.64,0,0,1-.6,6.53,38.92,38.92,0,0,0-.6,6.18c0,4.81,2,7.48,6.79,7.48h1.55v4.72h-1.81c-7.13,0-12.46-3.09-12.46-11.77a49.35,49.35,0,0,1,.69-7,48.26,48.26,0,0,0,.69-7c0-2.67-.86-6.36-7-6.36Z" style="fill:#545454"/><path d="M847.3,385.29c-6.1,0-7,3.35-7,6.36a50.39,50.39,0,0,0,.69,7.22,50.44,50.44,0,0,1,.68,7.13c0,7.9-5.15,11.26-12.46,11.26h-1.8v-4.73H829c5.07,0,6.78-2.75,6.78-7.39a36.84,36.84,0,0,0-.6-6.1,40.53,40.53,0,0,1-.6-6.53c-.08-5.5,2.32-8.25,6.19-9.28v-.17c-3.87-.95-6.27-3.87-6.19-9.37a39.6,39.6,0,0,1,.6-6.53,37.9,37.9,0,0,0,.6-6.19c0-4.81-2-7.47-6.78-7.47h-1.55v-4.73h1.8c7.14,0,12.46,3.09,12.46,11.77a49.47,49.47,0,0,1-.68,7,46.88,46.88,0,0,0-.69,7c0,2.66.86,6.36,7,6.36Z" style="fill:#545454"/><path d="M1068.7,413.09a23.72,23.72,0,0,1-33.87-21.21c.17.17,1.75,1.74,3.35,3.36s4.67-.34,4.67-.34l-10.17-10.21-8.54,11.59s3.25,1.59,4.68-.35l2.74-3.73a27.06,27.06,0,0,0,2.58,11h0a27,27,0,0,0,45.26,5.59l-2.53-2.08a23.35,23.35,0,0,1-8.17,6.38Z" style="fill:#545454;stroke:#545454;stroke-miterlimit:10;stroke-width:4px"/><path d="M1048.74,368.16a23.72,23.72,0,0,1,33.87,21.21c-.18-.17-1.75-1.75-3.35-3.36s-4.68.34-4.68.34l10.17,10.2,8.54-11.58s-3.25-1.6-4.67.35c-1.22,1.65-2.41,3.26-2.74,3.72a27,27,0,0,0-2.59-11h0a27,27,0,0,0-45.25-5.59l2.53,2.08a23.35,23.35,0,0,1,8.17-6.38Z" style="fill:#545454;stroke:#545454;stroke-miterlimit:10;stroke-width:4px"/><path d="M1058.52,447.77a57.39,57.39,0,1,1,57.38-57.38A57.45,57.45,0,0,1,1058.52,447.77Zm0-105.11a47.73,47.73,0,1,0,47.72,47.73A47.78,47.78,0,0,0,1058.52,342.66Z" style="fill:#545454"/><path d="M1146.6,490.91a5.11,5.11,0,0,1-3.71-1.61l-52.68-56.14a5.09,5.09,0,0,1,7.43-7l52.68,56.14a5.1,5.1,0,0,1-3.72,8.57Z" style="fill:#545454"/></g></svg>